<svg version="1.1" xmlns="http://www.w3.org/2000/svg" xmlns:xlink="http://www.w3.org/1999/xlink" width="192" height="146" viewBox="0,0,192,146"><defs><radialGradient cx="218" cy="171" r="74.5" gradientUnits="userSpaceOnUse" id="color-1"><stop offset="0" stop-color="#9966ff"/><stop offset="1" stop-color="#ffffff"/></radialGradient></defs><g transform="translate(-120.16667,-97.5)"><g data-paper-data="{&quot;isPaintingLayer&quot;:true}" fill-rule="nonzero" stroke-linecap="butt" stroke-linejoin="miter" stroke-miterlimit="10" stroke-dasharray="" stroke-dashoffset="0" style="mix-blend-mode: normal"><path d="M218,99.5c39.39287,0 71.64477,29.34301 74.32047,66.49725c-8.07386,0.09664 -16.48714,2.06089 -16.48714,10.83608c0,6.72605 4.73396,9.73314 10,10c1.55018,0.07856 3.13758,0.22653 4.74113,0.38791c-7.65556,31.67406 -37.24276,55.27876 -72.57447,55.27876c-33.58924,0 -61.98661,-21.33386 -71.28373,-50.65326c5.0659,0.3152 10.18427,0.41733 14.78373,-0.01341c1.71048,-0.16019 3.78522,-0.03522 5,-1.25c2.37537,-2.37537 5,-5.39073 5,-8.75c0,-3.35927 -2.62463,-6.37463 -5,-8.75c-1.21478,-1.21478 -3.28954,-1.08964 -5,-1.25c-2.76565,-0.25928 -5.55721,0.09573 -8.33333,0c-2.78214,-0.09594 -6.19062,-0.6565 -9.66636,-1.04107c0.11673,-39.39283 33.42665,-71.29227 74.49969,-71.29227z" fill="url(#color-1)" stroke="#000000" stroke-width="2"/><path d="M157.06939,165.04863c1.11803,2.23607 -1.11803,3.3541 -1.11803,3.3541l0.13585,-0.30227c-1.79298,2.13577 -3.88125,3.55439 -5.81945,5.50064c-1.78607,1.79348 -1.68543,2.70235 -4.12811,4.03045c-1.17752,0.64023 -2.44558,1.46119 -3.7824,1.36437c-3.25904,-0.23604 -3.79187,-2.22788 -5.62503,-4.06149c-1.75328,-1.75371 -3.92692,-3.25907 -5.83269,-4.84721c0,0 -1.92055,-1.60046 -0.32009,-3.52101c1.60046,-1.92055 3.52101,-0.32009 3.52101,-0.32009c2.02238,1.68532 4.30676,3.2927 6.16731,5.15279c0.83101,0.83081 1.20252,2.52649 2.37497,2.60518c1.03197,0.06926 1.70252,-1.19626 2.42283,-1.93851c2.35225,-2.42392 5.02761,-4.55969 7.18055,-7.16603l1.46919,-0.96894c0,0 2.23607,-1.11803 3.3541,1.11803z" fill="#9966ff" stroke="none" stroke-width="0.5"/><path d="M305.39507,192.45217c-1.95217,1.56174 -3.51391,-0.39043 -3.51391,-0.39043l-1.67902,-2.24361c-1.00742,-2.35231 -1.87654,-4.64252 -3.08896,-6.89224c-0.19321,-0.3585 -0.15509,-0.94336 -0.53084,-1.10041c-1.09886,-0.45927 -4.5748,2.48558 -5.12616,2.81627c-3.23636,1.94111 -5.4886,4.46336 -8.71584,6.36218c0,0 -2.17061,1.24035 -3.41096,-0.93026c-1.24035,-2.17061 0.93026,-3.41096 0.93026,-3.41096c3.92114,-2.14953 6.94346,-5.75256 11.0143,-8.00811c1.78648,-0.98984 5.11148,-2.24609 7.14371,-1.48011c3.59733,1.35589 5.05418,7.58227 6.3802,10.67402l0.98764,1.08973c0,0 1.56174,1.95217 -0.39043,3.51391z" fill="#9966ff" stroke="none" stroke-width="0.5"/><path d="M210.33334,172.5c0,-1.38071 1.11929,-2.5 2.5,-2.5c1.38071,0 2.5,1.11929 2.5,2.5c0,1.38071 -1.11929,2.5 -2.5,2.5c-1.38071,0 -2.5,-1.11929 -2.5,-2.5z" fill="#9966ff" stroke="none" stroke-width="0.5"/><path d="" fill="#9966ff" stroke="none" stroke-width="0.5"/><path d="M170.33334,98.5c27.154,0 49.16667,30.51926 49.16667,68.16667c0,37.64741 -22.01267,68.16667 -49.16667,68.16667c-27.154,0 -49.16667,-30.51926 -49.16667,-68.16667c0,-37.64741 22.01267,-68.16667 49.16667,-68.16667z" fill="#ffffff" stroke="#000000" stroke-width="2"/><path d="M244.16667,176.16667c0,28.16652 14.99846,51 33.5,51c18.50154,0 33.5,-22.83348 33.5,-51c0,-28.16652 -14.99846,-51 -33.5,-51c-18.50154,0 -33.5,22.83348 -33.5,51z" fill="#ffffff" stroke="#000000" stroke-width="2"/></g></g></svg>