<svg version="1.1" xmlns="http://www.w3.org/2000/svg" xmlns:xlink="http://www.w3.org/1999/xlink" width="614" height="475" viewBox="0,0,614,475"><g transform="translate(37.5,21.5)"><g data-paper-data="{&quot;isPaintingLayer&quot;:true}" fill-rule="nonzero" stroke-linejoin="miter" stroke-miterlimit="10" stroke-dasharray="" stroke-dashoffset="0" style="mix-blend-mode: normal"><g><path d="M1,0h479v360h-479z" fill="#dbffe2" stroke="none" stroke-width="1" stroke-linecap="butt"></path><g fill="#ffffff" stroke="#ffffff" stroke-width="15" stroke-linecap="round"><g><path d="M249.61138,39.2l0.66866,37.1l-63.90474,-33.9l-62.56742,34.6l-65.71967,-34.6l-57.12262,30v-37.8l55.7853,-29.7l65.81519,34.7l62.56742,-34.7l64.47788,34.3"></path><path d="M480.96755,21.5v36.8l-30.08967,-16l-62.56742,34.6l-65.71967,-34.6l-65.8152,34.6l-0.66866,-37.1l1.33732,-1l63.80921,-34l65.8152,34.7l62.56743,-34.7l31.33147,16.7"></path></g><g><path d="M253.71885,132.1l0.57314,37.1l-63.80921,-34l-62.56742,34.7l-65.81519,-34.7l-61.13457,32.2v-37.8l59.89278,-31.8l65.71967,34.6l62.56742,-34.6l64.5734,34.3"></path><path d="M480.96755,112.2v36.7l-25.98219,-13.8l-62.56742,34.6l-65.8152,-34.6l-65.8152,34.6l-0.57314,-37.1l1.24179,-1l63.90474,-34l65.71967,34.7l62.56742,-34.7l27.31951,14.6"></path></g><g><path d="M4.02231,315l63.90474,-34l65.71967,34.6l62.56742,-34.6l64.5734,34.3l0.66866,37.1l-63.80921,-33.9l-62.56742,34.6l-65.81519,-34.6l-65.81519,34.6l-0.66866,-37.1z"></path><path d="M480.96755,291.7v36.8l-18.91351,-10.1l-62.56742,34.6l-65.81519,-34.6l-65.8152,34.6l-0.57314,-37.1l1.2418,-1l63.90474,-34l65.71967,34.7l62.56742,-34.7l20.25083,10.8"></path></g><g><path d="M256.68006,222.5l0.66866,37.1l-63.90474,-33.9l-62.56742,34.6l-65.71968,-34.6l-64.1913,33.8v-37.9l62.85398,-33.4l65.8152,34.7l62.56742,-34.7l64.47788,34.3"></path><path d="M480.96755,201.1v36.7l-23.02099,-12.2l-62.56742,34.6l-65.71967,-34.6l-65.8152,34.6l-0.66866,-37.1l1.33731,-1l63.80922,-34l65.8152,34.7l62.56742,-34.7l24.26278,13"></path></g></g></g><path d="M480,21l0.3,0.3" fill="none" stroke="#000000" stroke-width="2" stroke-linecap="round"></path><path d="M327.5,427.5l-356,-283l213,-160l333,266" fill="none" stroke="#b000ff" stroke-width="2" stroke-linecap="round"></path><path d="M153.5,452.5l-177,-149l384,-315l208,172" fill="none" stroke="#b000ff" stroke-width="2" stroke-linecap="round"></path><path d="M126.5,364.5l401,-356" fill="none" stroke="#b000ff" stroke-width="2" stroke-linecap="round"></path><path d="M328.5,373.5l247,-242" fill="none" stroke="#b000ff" stroke-width="2" stroke-linecap="round"></path><path d="M19.5,-5.5l485,364" fill="none" stroke="#b000ff" stroke-width="2" stroke-linecap="round"></path><path d="M-36.5,43.5l446,354" fill="none" stroke="#b000ff" stroke-width="2" stroke-linecap="round"></path><path d="M10.5,379.5l465,-399" fill="none" stroke="#b000ff" stroke-width="2" stroke-linecap="round"></path><path d="M207.5,388.5l353,-324" fill="none" stroke="#b000ff" stroke-width="2" stroke-linecap="round"></path><path d="M-8.5,228.5l291,-249" fill="none" stroke="#b000ff" stroke-width="2" stroke-linecap="round"></path><text transform="translate(45.5,151.61618) scale(1.47614,2.48343)" font-size="40" xml:space="preserve" fill="#000000" fill-rule="nonzero" stroke="none" stroke-width="1" stroke-linecap="butt" stroke-linejoin="miter" stroke-miterlimit="10" stroke-dasharray="" stroke-dashoffset="0" font-family="Sans Serif" font-weight="normal" text-anchor="start" style="mix-blend-mode: normal"><tspan x="0" dy="0">clicke na bola</tspan></text></g></g></svg>