<svg version="1.1" xmlns="http://www.w3.org/2000/svg" xmlns:xlink="http://www.w3.org/1999/xlink" width="89.31385" height="74.51311" viewBox="0,0,89.31385,74.51311"><g transform="translate(-181.69671,-138.93592)"><g data-paper-data="{&quot;isPaintingLayer&quot;:true}" stroke-miterlimit="10" stroke-dasharray="" stroke-dashoffset="0" style="mix-blend-mode: normal"><g fill-rule="evenodd"><path d="" fill="#ffab19" stroke="#001026" stroke-width="1.2" stroke-linecap="round" stroke-linejoin="round"></path><path d="" fill="#ffffff" stroke="none" stroke-width="1" stroke-linecap="butt" stroke-linejoin="miter"></path></g><path d="" fill="#ffab19" fill-rule="evenodd" stroke="#001026" stroke-width="1.2" stroke-linecap="round" stroke-linejoin="round"></path><path d="" fill="#ffab19" fill-rule="evenodd" stroke="#001026" stroke-width="1.2" stroke-linecap="round" stroke-linejoin="round"></path><g fill-rule="evenodd"><path d="" fill="#ffab19" stroke="#001026" stroke-width="1.2" stroke-linecap="round" stroke-linejoin="round"></path><path d="" fill="#ffffff" stroke="none" stroke-width="1" stroke-linecap="butt" stroke-linejoin="miter"></path></g><path d="" fill="#ffab19" fill-rule="evenodd" stroke="#001026" stroke-width="1.2" stroke-linecap="round" stroke-linejoin="round"></path><g fill-rule="evenodd"><path d="" fill="#ffab19" stroke="#001026" stroke-width="1.2" stroke-linecap="butt" stroke-linejoin="miter"></path><path d="" fill="#ffffff" stroke="none" stroke-width="1" stroke-linecap="butt" stroke-linejoin="miter"></path><path d="" fill="#ffffff" stroke="#001026" stroke-width="1.2" stroke-linecap="round" stroke-linejoin="round"></path><path d="" fill="#001026" stroke="#001026" stroke-width="1.2" stroke-linecap="round" stroke-linejoin="round"></path><g><path d="" fill="#ffffff" stroke="#001026" stroke-width="1.2" stroke-linecap="round" stroke-linejoin="round"></path><path d="" fill="#001026" stroke="none" stroke-width="1" stroke-linecap="butt" stroke-linejoin="miter"></path></g><g><path d="" fill="#ffffff" stroke="#001026" stroke-width="1.2" stroke-linecap="round" stroke-linejoin="round"></path><path d="" fill="#001026" stroke="none" stroke-width="1" stroke-linecap="butt" stroke-linejoin="miter"></path></g></g><path d="" fill="#9966ff" fill-rule="nonzero" stroke="none" stroke-width="0.5" stroke-linecap="butt" stroke-linejoin="miter"></path><path d="" fill="#9966ff" fill-rule="nonzero" stroke="none" stroke-width="0.5" stroke-linecap="butt" stroke-linejoin="miter"></path><path d="M200.77015,176.50768c0,15.54663 12.30176,28.14966 27.47676,28.14966c15.17499,0 27.47676,-12.60303 27.47676,-28.14966c0,-15.54663 -12.30176,-28.14966 -27.47676,-28.14966c-15.17499,0 -27.47676,12.60303 -27.47676,28.14966z" fill="#9966ff" fill-rule="nonzero" stroke="#000000" stroke-width="2" stroke-linecap="butt" stroke-linejoin="miter"></path><path d="M184.06748,186.52634c0.47858,-1.44953 3.38753,-3.51141 4.62571,-4.47799l0.7358,-0.97288c0,0 0.95073,-1.14088 2.26599,-0.93123c0.38709,-0.22317 0.87786,-0.51124 1.35311,-0.72588c-0.37561,-0.22531 -0.73267,-0.49128 -1.09296,-0.73622c-0.48371,-0.32886 -4.46187,-3.47739 -4.64544,-3.73114c-1.90609,-2.63464 -2.90356,-7.24155 -4.27262,-10.26412c-0.44761,-0.98821 -1.32625,-1.88114 -1.34,-2.9659c-0.02042,-1.6114 0.82881,-3.11467 1.24322,-4.672c1.38053,-0.28661 2.76107,-0.57321 4.1416,-0.85982c-0.38694,-1.53098 -0.62392,-3.13688 -0.69749,-4.81134c-0.07025,-1.59872 -0.10874,-6.37255 1.02937,-7.3268c2.56817,-2.15332 5.64611,-0.39455 7.8304,0.76969c3.08212,1.64279 5.89317,3.77135 8.14554,6.38884c0.1935,-0.63054 0.42639,-1.25503 0.60522,-1.81384c1.27496,-3.9841 3.7909,-7.46159 7.6753,-9.16605c3.77985,-1.65858 6.91971,-2.13441 10.03653,1.08716c0.73496,0.75966 1.29272,1.70916 1.66621,2.69798c0.13128,0.34755 -0.57156,0.93056 -0.23568,1.08935c0.32715,0.15467 0.19436,-0.74462 0.47071,-0.97824c1.22439,-1.03503 3.85934,-2.14316 5.33685,-2.47152c5.23001,-1.16231 10.72662,-0.21501 15.15511,2.53771c0.75756,1.43898 1.2548,3.03409 1.50356,4.64116c0.12219,0.78938 1.30479,-0.95361 2.05028,-1.24049c1.92272,-0.73991 3.99831,-1.06185 6.05116,-1.06185c5.36518,0 9.16987,2.70692 13.19846,5.90982c1.84091,1.46361 4.18938,2.82706 4.10492,5.74021c-0.04594,1.58439 -0.85751,3.17569 -1.92344,4.3488c-0.80674,0.88786 -2.1962,0.96728 -3.31057,1.41146c-1.67502,0.66764 -4.20853,1.77309 -6.3635,2.08406c0.12354,0.12604 0.24919,0.24875 0.38063,0.36232c3.02939,3.87876 4.70349,7.73184 6.16544,12.39143c1.15761,3.68959 2.0538,7.29524 -1.66887,10.01445c-1.38661,1.01284 -3.3979,0.52899 -5.11141,0.64044c-0.18248,0.01187 0.1095,0.34897 0.16643,0.52275c0.21087,0.6437 0.51622,1.26315 0.63698,1.92966c0.18026,0.99494 0.21464,2.01212 0.26019,3.02223c0.16232,3.59955 0.76159,10.04452 -2.97115,12.31983c-4.09899,2.49856 -6.99301,-2.17273 -10.29596,-0.68665c-3.68453,3.81688 -9.83987,6.64701 -15.14565,6.89387c-2.71308,0.12623 -5.32735,-0.67762 -7.9544,-0.67074c-6.2311,0.01633 -13.70842,1.27162 -19.08038,-3.25825c-2.32361,-1.95937 -1.9913,-4.78185 -4.11043,-6.56695c-0.1442,-0.12147 -0.4576,-0.31038 -0.84844,-0.52651c-0.57958,-0.07448 -1.15908,-0.15074 -1.73857,-0.19903l-1.81109,0.00864c0,0 -1.55925,0 -2.21493,-1.23142c-4.97222,-2.07437 -12.04989,-8.26148 -10.00174,-14.46498zM208.38872,205.55593c0,0 0.03045,0.16749 0.03176,0.423c4.50456,3.13986 10.5178,1.77558 15.45257,1.78591c3.35128,0.00701 6.58348,1.24348 10.0064,0.50667c3.74284,-0.80568 7.72475,-3.34156 10.40777,-5.94715c1.27008,-0.42951 2.47035,-1.24094 3.81024,-1.28852c0.91214,-0.03239 5.4494,2.61568 6.52941,1.94767c0.81676,-0.50519 0.56104,-1.85418 0.6256,-2.81238c0.15827,-2.34907 0.19297,-5.08741 -0.19635,-7.41576c-0.16973,-1.01505 -0.88013,-1.99016 -0.70882,-3.00494c0.26787,-1.58687 0.72941,-3.37574 1.96083,-4.41185c1.51104,-1.27137 5.52534,0.60362 5.76689,-1.3563c0.06109,-0.49565 -0.84098,-3.55807 -0.88357,-3.68981c-1.26623,-3.91742 -2.50595,-7.19839 -5.04957,-10.48718c-0.72607,-0.66084 -1.72705,-1.11055 -2.17821,-1.98253c-0.77678,-1.50136 -2.04703,-3.33142 -1.37328,-4.88175c0.79852,-1.83741 7.20713,-2.22704 9.10555,-2.83479c0.16443,-0.05264 4.45454,-1.05941 4.31325,-1.8327c-0.19293,-1.0559 -3.4612,-2.91421 -4.14405,-3.41811c-3.28876,-2.42686 -6.21326,-3.86002 -10.41726,-3.13822c-3.44208,0.59098 -5.63351,3.70668 -9.37989,0.65162c-1.30505,-1.06423 -0.96162,-3.23669 -1.63664,-4.77944c-3.23319,-1.76689 -9.00174,-1.98701 -12.34287,-0.33886c-1.85004,0.91261 -4.3502,3.26396 -6.61986,2.56701c-3.04956,-0.93644 -2.02183,-6.86485 -5.80757,-5.74654c-4.1036,1.21221 -6.94236,4.51295 -7.47843,8.88061c-0.11344,0.92425 0.35108,1.93765 -0.0158,2.79353c-0.05732,0.13373 -0.11867,0.26524 -0.18356,0.3948l0.07096,0.0258l-0.87728,2.41252c-0.33349,0.98859 -1.26832,1.70042 -2.3694,1.70042c-0.92661,0 -1.73548,-0.50412 -2.16731,-1.25305l-1.32223,-2.20371c-1.61647,-2.7443 -3.81887,-4.59739 -6.44698,-6.40154c-0.65107,-0.44694 -1.34825,-0.82304 -2.03291,-1.21659c-0.53134,-0.30542 -1.11762,-0.52093 -1.61436,-0.87989c-0.19712,-0.14244 -0.52077,-0.81672 -0.42444,-0.59342c0.82796,1.91933 0.40557,3.70564 0.76917,5.80057c1.11509,6.42474 5.13678,10.86478 10.76829,13.67516c0,0 2.23607,1.11803 1.11803,3.3541c-1.11803,2.23607 -3.3541,1.11803 -3.3541,1.11803c-4.85968,-2.43414 -8.72553,-6.01341 -11.10336,-10.50307l-1.4776,-0.00804c-0.40632,-0.13864 -0.81264,-0.27728 -1.21896,-0.41591c3.26646,2.47893 2.84609,8.19437 5.0512,11.25698c2.00132,2.77957 9.01243,3.65705 8.28684,8.43512c-0.23317,1.53546 -2.24404,2.16125 -3.49747,3.07827c-1.96827,1.44 -3.76056,1.44388 -5.14411,3.62742c-0.03956,0.06243 -1.33558,2.25392 -1.11335,2.74178c0.54674,1.20027 1.9992,1.7224 2.95642,2.62977c0.57941,0.54923 1.14195,1.12345 1.78361,1.59847c1.3304,0.98491 2.81193,1.5488 4.30677,2.22578c0.68741,0.34416 1.35286,0.6686 1.99114,1.00228c1.04719,0.04532 2.17551,0.1165 3.24736,0.30498c0.0235,0.00105 0.04695,0.00224 0.07035,0.00358c0.44493,-0.40815 1.03812,-0.65727 1.6895,-0.65727c1.38071,0 2.5,1.11929 2.5,2.5c0,0.15225 -0.01361,0.30133 -0.03968,0.44607c0.97641,1.58433 -0.39303,3.78416 -0.00065,5.61142z" fill="#000000" fill-rule="nonzero" stroke="none" stroke-width="0.5" stroke-linecap="butt" stroke-linejoin="miter"></path><path d="M208.3594,199.98453c0.02607,-0.14474 0.03936,-0.29406 0.03936,-0.44631c0,-1.38071 -1.12387,-2.50395 -2.50458,-2.50395c-0.65138,0 -1.24543,0.24825 -1.69037,0.6564c-0.0234,-0.00134 -0.04692,-0.00259 -0.07041,-0.00364c-1.07184,-0.18848 -2.2027,-0.26247 -3.24989,-0.30779c-0.63828,-0.33369 -1.3056,-0.66049 -1.99301,-1.00466c-1.49484,-0.67698 -2.97965,-1.24591 -4.31005,-2.23082c-0.64166,-0.47503 -1.20563,-1.05195 -1.78504,-1.60118c-0.95721,-0.90736 -2.41155,-1.43384 -2.95829,-2.63411c-0.22222,-0.48785 1.07284,-2.68214 1.1124,-2.74457c1.38355,-2.18354 3.175,-2.19044 5.14327,-3.63044c1.25343,-0.91702 3.2635,-1.54676 3.49668,-3.08222c0.72559,-4.77807 -6.28578,-5.66943 -8.2871,-8.44899c-2.20512,-3.06261 -1.78172,-8.79014 -5.04818,-11.26907c0.40632,0.13864 0.81267,0.27722 1.21899,0.41585l1.57053,0.04495c2.37783,4.48966 6.24659,8.05875 11.10627,10.49289c0,0 2.13829,1.09736 3.25633,-1.13871c1.11803,-2.23607 -1.11628,-3.3597 -1.11628,-3.3597c-5.63151,-2.81038 -9.64824,-7.26015 -10.76333,-13.68489c-0.3636,-2.09493 0.06166,-3.88519 -0.7663,-5.80452c-0.09633,-0.2233 0.22719,0.45115 0.42431,0.59359c0.49674,0.35896 1.08326,0.57419 1.61459,0.8796c0.68466,0.39355 1.3821,0.76933 2.03317,1.21627c2.62812,1.80414 4.9085,3.71981 6.52497,6.46412l1.32318,2.20245c0.43183,0.74893 1.16027,1.19363 2.08688,1.19363c1.10109,0 2.03936,-0.71596 2.37284,-1.70455l0.8804,-2.4156l-0.07101,-0.02576c0.06489,-0.12956 0.12678,-0.26156 0.18411,-0.39529c0.36688,-0.85587 -0.09521,-1.87128 0.01823,-2.79553c0.53607,-4.36766 3.38987,-7.67636 7.49348,-8.88857c3.78574,-1.11831 2.76478,4.8084 5.81434,5.74484c2.26966,0.69695 4.78189,-1.65506 6.63193,-2.56767c3.34113,-1.64815 9.12866,-1.42289 12.36185,0.34401c0.67502,1.54275 0.33703,3.71837 1.64208,4.7826c3.74638,3.05506 5.94597,-0.05383 9.38806,-0.64482c4.20399,-0.7218 7.1355,0.72048 10.42425,3.14734c0.68285,0.50389 3.9538,2.36735 4.14674,3.42325c0.14129,0.77329 -4.23995,1.82124 -4.40438,1.87388c-1.89842,0.60775 -8.21681,0.9543 -9.01533,2.7917c-0.67376,1.55033 0.59968,3.38838 1.37646,4.88974c0.45115,0.87198 1.45317,1.32568 2.17923,1.98652c2.54362,3.28879 3.7841,6.58599 5.05034,10.50341c0.04258,0.13175 0.94386,3.19895 0.88277,3.6946c-0.24155,1.95992 -4.25686,0.08884 -5.7679,1.36021c-1.23142,1.03611 -1.69574,2.83214 -1.96361,4.41901c-0.1713,1.01478 0.53742,1.99309 0.70715,3.00814c0.38932,2.32835 0.34982,5.07364 0.19155,7.42271c-0.06456,0.9582 0.18899,2.30966 -0.62777,2.81485c-1.08001,0.66801 -5.62058,-1.97685 -6.53272,-1.94446c-1.33989,0.04758 -2.54476,0.86262 -3.81484,1.29213c-2.68301,2.60559 -6.68174,5.14901 -10.42458,5.95469c-3.42292,0.73681 -6.67044,-0.4984 -10.02172,-0.50541c-4.93477,-0.01033 -10.97,1.34703 -15.47456,-1.79283c-0.00131,-0.25551 -0.03206,-0.42319 -0.03206,-0.42319c-0.39238,-1.82726 0.97299,-4.02984 -0.00342,-5.61416z" data-paper-data="{&quot;noHover&quot;:false,&quot;origItem&quot;:[&quot;Path&quot;,{&quot;applyMatrix&quot;:true,&quot;segments&quot;:[[[208.38872,205.55593],[-0.39238,-1.82726],[0,0]],[[208.42048,205.97893],[-0.00131,-0.25551],[4.50456,3.13986]],[[223.87305,207.76484],[-4.93477,-0.01033],[3.35128,0.00701]],[[233.87945,208.27151],[-3.42292,0.73681],[3.74284,-0.80568]],[[244.28722,202.32436],[-2.68301,2.60559],[1.27008,-0.42951]],[[248.09746,201.03584],[-1.33989,0.04758],[0.91214,-0.03239]],[[254.62687,202.98351],[-1.08001,0.66801],[0.81676,-0.50519]],[[255.25247,200.17112],[-0.06456,0.9582],[0.15827,-2.34907]],[[255.05612,192.75536],[0.38932,2.32835],[-0.16973,-1.01505]],[[254.34729,189.75041],[-0.1713,1.01478],[0.26787,-1.58687]],[[256.30812,185.33856],[-1.23142,1.03611],[1.51104,-1.27137]],[[262.07501,183.98227],[-0.24155,1.95992],[0.06109,-0.49565]],[[261.19144,180.29245],[0.04258,0.13175],[-1.26623,-3.91742]],[[256.14188,169.80527],[2.54362,3.28879],[-0.72607,-0.66084]],[[253.96367,167.82275],[0.45115,0.87198],[-0.77678,-1.50136]],[[252.5904,162.94099],[-0.67376,1.55033],[0.79852,-1.83741]],[[261.69595,160.1062],[-1.89842,0.60775],[0.16443,-0.05264]],[[266.0092,158.2735],[0.14129,0.77329],[-0.19293,-1.0559]],[[261.86514,154.85539],[0.68285,0.50389],[-3.28876,-2.42686]],[[251.44789,151.71717],[4.20399,-0.7218],[-3.44208,0.59098]],[[242.06799,152.36879],[3.74638,3.05506],[-1.30505,-1.06423]],[[240.43135,147.58935],[0.67502,1.54275],[-3.23319,-1.76689]],[[228.08849,147.25048],[3.34113,-1.64815],[-1.85004,0.91261]],[[221.46862,149.81749],[2.26966,0.69695],[-3.04956,-0.93644]],[[215.66105,144.07095],[3.78574,-1.11831],[-4.1036,1.21221]],[[208.18263,152.95156],[0.53607,-4.36766],[-0.11344,0.92425]],[[208.16683,155.74508],[0.36688,-0.85587],[-0.05732,0.13373]],[[207.98327,156.13988],[0.06489,-0.12956],[0,0]],[208.05423,156.16568],[[207.17695,158.5782],[0,0],[-0.33349,0.98859]],[[204.80755,160.27862],[1.10109,0],[-0.92661,0]],[[202.64024,159.02557],[0.43183,0.74893],[0,0]],[[201.31802,156.82186],[0,0],[-1.61647,-2.7443]],[[194.87103,150.42033],[2.62812,1.80414],[-0.65107,-0.44694]],[[192.83812,149.20374],[0.68466,0.39355],[-0.53134,-0.30542]],[[191.22376,148.32384],[0.49674,0.35896],[-0.19712,-0.14244]],[[190.79932,147.73043],[-0.09633,-0.2233],[0.82796,1.91933]],[[191.56849,153.531],[-0.3636,-2.09493],[1.11509,6.42474]],[[202.33678,167.20616],[-5.63151,-2.81038],[0,0]],[[203.45482,170.56026],[1.11803,-2.23607],[-1.11803,2.23607]],[[200.10071,171.6783],[0,0],[-4.85968,-2.43414]],[[188.99736,161.17523],[2.37783,4.48966],[0,0]],[[187.51976,161.16719],[0,0],[-0.40632,-0.13864]],[[186.30079,160.75127],[0.40632,0.13864],[3.26646,2.47893]],[[191.352,172.00826],[-2.20512,-3.06261],[2.00132,2.77957]],[[199.63884,180.44338],[0.72559,-4.77807],[-0.23317,1.53546]],[[196.14137,183.52165],[1.25343,-0.91702],[-1.96827,1.44]],[[190.99726,187.14906],[1.38355,-2.18354],[-0.03956,0.06243]],[[189.88391,189.89084],[-0.22222,-0.48785],[0.54674,1.20027]],[[192.84032,192.52061],[-0.95721,-0.90736],[0.57941,0.54923]],[[194.62393,194.11908],[-0.64166,-0.47503],[1.3304,0.98491]],[[198.9307,196.34486],[-1.49484,-0.67698],[0.68741,0.34416]],[[200.92184,197.34714],[-0.63828,-0.33369],[1.04719,0.04532]],[[204.16919,197.65212],[-1.07184,-0.18848],[0.0235,0.00105]],[[204.23955,197.6557],[-0.0234,-0.00134],[0.44493,-0.40815]],[[205.92905,196.99844],[-0.65138,0],[1.38071,0]],[[208.42905,199.49844],[0,-1.38071],[0,0.15225]],[[208.38937,199.94451],[0.02607,-0.14474],[0.97641,1.58433]]],&quot;closed&quot;:true}]}" fill="#bd00ff" fill-rule="nonzero" stroke="none" stroke-width="0.5" stroke-linecap="butt" stroke-linejoin="miter"></path><path d="M239.09882,197.2288c-1.76777,1.76777 -3.53553,0 -3.53553,0l-0.2243,-0.2243c-1.71657,-1.71657 -3.43823,-3.27045 -5.25285,-4.86436c-0.30809,-0.27062 -0.41982,-0.90811 -0.82989,-0.90811c-0.41006,0 -0.52077,0.63866 -0.82989,0.90811c-1.95046,1.70012 -4.10039,2.79048 -5.92575,4.64006c0,0 -1.76777,1.76777 -3.53553,0c-1.76777,-1.76777 0,-3.53553 0,-3.53553c1.96101,-1.94028 4.25055,-3.81882 6.63505,-5.22914c1.16712,-0.6903 2.30014,-1.78349 3.65612,-1.78349c3.48571,0 7.39753,5.01619 9.61827,7.23693l0.2243,0.2243c0,0 1.76777,1.76777 0,3.53553z" fill="#000000" fill-rule="nonzero" stroke="none" stroke-width="0.5" stroke-linecap="butt" stroke-linejoin="miter"></path><path d="M243.17849,169.11063c1.4531,2.03433 -0.58124,3.48743 -0.58124,3.48743l-2.16884,1.43665c-2.34258,0.85185 -4.93165,1.52745 -7.18103,2.59908c-2.70057,1.28658 -2.76758,2.43675 -6.38157,2.00965c-1.33793,-0.15812 -4.06676,-2.06589 -5.31728,-2.74799c-2.58281,-1.4088 -4.98921,-2.71379 -7.40824,-4.40514c0,0 -2.04808,-1.43366 -0.61442,-3.48174c1.43366,-2.04808 3.48174,-0.61442 3.48174,-0.61442c2.2772,1.59602 4.51192,2.79006 6.94697,4.11827c1.24629,0.67979 2.25772,1.93409 3.65472,2.18661c1.19845,0.21663 2.69129,-1.20012 3.48763,-1.57916c2.39405,-1.1395 5.12923,-1.87738 7.62278,-2.78412l0.97136,-0.80635c0,0 2.03433,-1.4531 3.48743,0.58124z" fill="#000000" fill-rule="nonzero" stroke="none" stroke-width="0.5" stroke-linecap="butt" stroke-linejoin="miter"></path><path d="M237.29836,181.10583c0,-1.38071 1.11929,-2.5 2.5,-2.5c1.38071,0 2.5,1.11929 2.5,2.5c0,1.38071 -1.11929,2.5 -2.5,2.5c-1.38071,0 -2.5,-1.11929 -2.5,-2.5z" fill="#000000" fill-rule="nonzero" stroke="none" stroke-width="0.5" stroke-linecap="butt" stroke-linejoin="miter"></path><path d="M212.62535,181.33013c0,-1.38071 1.11929,-2.5 2.5,-2.5c1.38071,0 2.5,1.11929 2.5,2.5c0,1.38071 -1.11929,2.5 -2.5,2.5c-1.38071,0 -2.5,-1.11929 -2.5,-2.5z" fill="#000000" fill-rule="nonzero" stroke="none" stroke-width="0.5" stroke-linecap="butt" stroke-linejoin="miter"></path></g></g></svg>